<svg width="80" height="80" viewBox="0 0 80 80" fill="none" xmlns="http://www.w3.org/2000/svg">
<rect width="80" height="80" rx="40" fill="#06C755"/>
<path d="M66.6651 36.2309C66.6651 24.2959 54.7001 14.5859 39.9926 14.5859C25.2851 14.5859 13.3201 24.2959 13.3201 36.2309C13.3201 46.9309 22.8201 55.8934 35.6251 57.5859C36.4951 57.7734 37.6776 58.1584 37.9751 58.9009C38.2451 59.5759 38.1526 60.6334 38.0626 61.3134C38.0626 61.3134 37.7501 63.1959 37.6826 63.5959C37.5651 64.2709 37.1451 66.2334 39.9926 65.0359C42.8401 63.8384 55.3526 55.9909 60.9476 49.5484C64.8126 45.3109 66.6651 41.0009 66.6651 36.2309Z" fill="white"/>
<path d="M57.79 43.1219H50.29C50.1574 43.1219 50.0303 43.0692 49.9365 42.9754C49.8427 42.8817 49.79 42.7545 49.79 42.6219V30.9844C49.79 30.8518 49.8427 30.7246 49.9365 30.6308C50.0303 30.5371 50.1574 30.4844 50.29 30.4844H57.79C57.9227 30.4844 58.0498 30.5371 58.1436 30.6308C58.2374 30.7246 58.29 30.8518 58.29 30.9844V32.8769C58.29 33.0095 58.2374 33.1367 58.1436 33.2304C58.0498 33.3242 57.9227 33.3769 57.79 33.3769H52.6975V35.3394H57.79C57.9227 35.3394 58.0498 35.3921 58.1436 35.4858C58.2374 35.5796 58.29 35.7068 58.29 35.8394V37.7494C58.29 37.882 58.2374 38.0092 58.1436 38.1029C58.0498 38.1967 57.9227 38.2494 57.79 38.2494H52.6975V40.2144H57.79C57.9227 40.2144 58.0498 40.2671 58.1436 40.3608C58.2374 40.4546 58.29 40.5818 58.29 40.7144V42.6044C58.2924 42.6715 58.2812 42.7384 58.2571 42.8011C58.2331 42.8638 58.1966 42.921 58.1499 42.9693C58.1033 43.0176 58.0473 43.056 57.9855 43.0822C57.9237 43.1084 57.8572 43.1219 57.79 43.1219Z" fill="#06C755"/>
<path d="M30.0726 43.1244C30.2052 43.1244 30.3324 43.0717 30.4261 42.9779C30.5199 42.8842 30.5726 42.757 30.5726 42.6244V40.7344C30.5726 40.6018 30.5199 40.4746 30.4261 40.3808C30.3324 40.2871 30.2052 40.2344 30.0726 40.2344H24.9801V30.9844C24.9801 30.8518 24.9274 30.7246 24.8336 30.6308C24.7399 30.5371 24.6127 30.4844 24.4801 30.4844H22.5801C22.4475 30.4844 22.3203 30.5371 22.2265 30.6308C22.1328 30.7246 22.0801 30.8518 22.0801 30.9844V42.6169C22.0801 42.7495 22.1328 42.8767 22.2265 42.9704C22.3203 43.0642 22.4475 43.1169 22.5801 43.1169H30.0801L30.0726 43.1244Z" fill="#06C755"/>
<path d="M34.5826 30.4609H32.6926C32.411 30.4609 32.1826 30.6893 32.1826 30.9709V42.6109C32.1826 42.8926 32.411 43.1209 32.6926 43.1209H34.5826C34.8643 43.1209 35.0926 42.8926 35.0926 42.6109V30.9709C35.0926 30.6893 34.8643 30.4609 34.5826 30.4609Z" fill="#06C755"/>
<path d="M47.4599 30.4609H45.5699C45.4373 30.4609 45.3101 30.5136 45.2163 30.6074C45.1226 30.7012 45.0699 30.8283 45.0699 30.9609V37.8759L39.7449 30.6834C39.7327 30.6644 39.7185 30.6468 39.7024 30.6309L39.6724 30.6009L39.6449 30.5784H39.6299L39.6024 30.5584H39.5874L39.5599 30.5434H39.5424H39.5149H39.4974H39.4674H39.4474H39.4174H39.3974H39.3699H37.4424C37.3098 30.5434 37.1826 30.5961 37.0888 30.6899C36.9951 30.7837 36.9424 30.9108 36.9424 31.0434V42.6834C36.9424 42.816 36.9951 42.9432 37.0888 43.037C37.1826 43.1308 37.3098 43.1834 37.4424 43.1834H39.3349C39.4675 43.1834 39.5947 43.1308 39.6884 43.037C39.7822 42.9432 39.8349 42.816 39.8349 42.6834V35.7009L45.1674 42.9009C45.2023 42.9519 45.2464 42.996 45.2974 43.0309L45.3274 43.0509H45.3424L45.3674 43.0634H45.3924H45.4099H45.4449C45.4891 43.0743 45.5344 43.0802 45.5799 43.0809H47.4599C47.5925 43.0809 47.7197 43.0283 47.8134 42.9345C47.9072 42.8407 47.9599 42.7135 47.9599 42.5809V30.9709C47.9612 30.9044 47.9493 30.8383 47.9247 30.7765C47.9002 30.7147 47.8636 30.6584 47.817 30.6109C47.7705 30.5634 47.7149 30.5257 47.6536 30.4999C47.5922 30.4742 47.5264 30.4609 47.4599 30.4609Z" fill="#06C755"/>
</svg>
