<svg width="80" height="80" viewBox="0 0 80 80" fill="none" xmlns="http://www.w3.org/2000/svg">
<rect width="80" height="80" rx="40" fill="#874C00"/>
<path d="M50.321 57.0703C51.2351 56.1562 52.2898 55.6992 53.4851 55.6992C54.6804 55.6992 55.7 56.1562 56.5437 57.0703C57.4578 57.9844 57.9148 59.0391 57.9148 60.2344C57.9148 61.4297 57.4578 62.4844 56.5437 63.3984C55.7 64.2422 54.6804 64.6641 53.4851 64.6641C52.2898 64.6641 51.2351 64.2422 50.321 63.3984C49.407 62.4844 48.95 61.4297 48.95 60.2344C48.95 59.0391 49.407 57.9844 50.321 57.0703ZM17.4148 19.7344H24.7976L26.907 24.1641H60.2351C60.8679 24.1641 61.3953 24.4102 61.8171 24.9023C62.239 25.3242 62.45 25.8516 62.45 26.4844C62.45 26.8359 62.3445 27.1875 62.1335 27.5391L54.1179 42.0938C53.2742 43.6406 51.9734 44.4141 50.2156 44.4141H33.446L31.4421 48.1055L31.3367 48.4219C31.3367 48.7734 31.5125 48.9492 31.864 48.9492H57.9148V53.4844H30.9148C29.7195 53.4844 28.6648 53.0273 27.7507 52.1133C26.907 51.1992 26.4851 50.1445 26.4851 48.9492C26.4851 48.2461 26.6609 47.543 27.0125 46.8398L30.071 41.25L21.95 24.1641H17.4148V19.7344ZM27.7507 57.0703C28.6648 56.1562 29.7195 55.6992 30.9148 55.6992C32.1101 55.6992 33.1648 56.1562 34.0789 57.0703C34.9929 57.9844 35.45 59.0391 35.45 60.2344C35.45 61.4297 34.9929 62.4844 34.0789 63.3984C33.1648 64.2422 32.1101 64.6641 30.9148 64.6641C29.7195 64.6641 28.6648 64.2422 27.7507 63.3984C26.907 62.4844 26.4851 61.4297 26.4851 60.2344C26.4851 59.0391 26.907 57.9844 27.7507 57.0703Z" fill="white"/>
</svg>
