<svg width="260" height="260" viewBox="0 0 260 260" fill="none" xmlns="http://www.w3.org/2000/svg">
<rect width="260" height="260" rx="130" fill="white"/>
<path d="M160.609 166.469C162.016 167.875 163.812 168.578 166 168.578C168.188 168.578 169.984 167.875 171.391 166.469C172.797 164.906 173.5 163.109 173.5 161.078C173.5 159.047 172.797 157.328 171.391 155.922C169.984 154.359 168.188 153.578 166 153.578C163.812 153.578 162.016 154.359 160.609 155.922C159.203 157.328 158.5 159.047 158.5 161.078C158.5 163.109 159.203 164.906 160.609 166.469ZM173.5 123.578H161.078V136H183.344L173.5 123.578ZM100.609 166.469C102.016 167.875 103.812 168.578 106 168.578C108.188 168.578 109.984 167.875 111.391 166.469C112.797 164.906 113.5 163.109 113.5 161.078C113.5 159.047 112.797 157.328 111.391 155.922C109.984 154.359 108.188 153.578 106 153.578C103.812 153.578 102.016 154.359 100.609 155.922C99.2031 157.328 98.5 159.047 98.5 161.078C98.5 163.109 99.2031 164.906 100.609 166.469ZM176.078 116.078L191.078 136V161.078H181C181 165.141 179.516 168.656 176.547 171.625C173.578 174.594 170.062 176.078 166 176.078C161.938 176.078 158.422 174.594 155.453 171.625C152.484 168.656 151 165.141 151 161.078H121C121 165.141 119.516 168.656 116.547 171.625C113.578 174.594 110.062 176.078 106 176.078C101.938 176.078 98.4219 174.594 95.4531 171.625C92.4844 168.656 91 165.141 91 161.078H80.9219V106C80.9219 103.344 81.9375 101 83.9688 98.9688C86 96.9375 88.3438 95.9219 91 95.9219H161.078V116.078H176.078Z" fill="#363537"/>
</svg>
