<svg width="260" height="260" viewBox="0 0 260 260" fill="none" xmlns="http://www.w3.org/2000/svg">
<rect width="260" height="260" rx="130" fill="white"/>
<path d="M154.047 169.047C156.078 167.016 158.422 166 161.078 166C163.734 166 166 167.016 167.875 169.047C169.906 171.078 170.922 173.422 170.922 176.078C170.922 178.734 169.906 181.078 167.875 183.109C166 184.984 163.734 185.922 161.078 185.922C158.422 185.922 156.078 184.984 154.047 183.109C152.016 181.078 151 178.734 151 176.078C151 173.422 152.016 171.078 154.047 169.047ZM80.9219 86.0781H97.3281L102.016 95.9219H176.078C177.484 95.9219 178.656 96.4688 179.594 97.5625C180.531 98.5 181 99.6719 181 101.078C181 101.859 180.766 102.641 180.297 103.422L162.484 135.766C160.609 139.203 157.719 140.922 153.812 140.922H116.547L112.094 149.125L111.859 149.828C111.859 150.609 112.25 151 113.031 151H170.922V161.078H110.922C108.266 161.078 105.922 160.062 103.891 158.031C102.016 156 101.078 153.656 101.078 151C101.078 149.438 101.469 147.875 102.25 146.312L109.047 133.891L91 95.9219H80.9219V86.0781ZM103.891 169.047C105.922 167.016 108.266 166 110.922 166C113.578 166 115.922 167.016 117.953 169.047C119.984 171.078 121 173.422 121 176.078C121 178.734 119.984 181.078 117.953 183.109C115.922 184.984 113.578 185.922 110.922 185.922C108.266 185.922 105.922 184.984 103.891 183.109C102.016 181.078 101.078 178.734 101.078 176.078C101.078 173.422 102.016 171.078 103.891 169.047Z" fill="#363537"/>
</svg>
