<svg width="260" height="260" viewBox="0 0 260 260" fill="none" xmlns="http://www.w3.org/2000/svg">
<rect width="260" height="260" rx="130" fill="white"/>
<path d="M165.455 91.5439V49.3103C165.98 48.8554 166.295 48.2431 166.295 47.5607V43.5018C166.295 42.1197 164.965 41 163.321 41H150.601C148.957 41 147.627 42.1197 147.627 43.5018V47.5607C147.627 48.2431 147.96 48.8554 148.485 49.2928V91.5264C143.288 93.1535 134.908 104.788 134.908 109.424V201.047C134.908 206.051 138.967 210.092 143.953 210.092H168.832C173.835 210.092 177.877 206.033 177.877 201.047V109.424C177.877 104.788 170.494 93.171 165.438 91.5264L165.455 91.5439Z" fill="#363537"/>
<path d="M172.961 125.574H140.105C139.139 125.574 138.355 126.358 138.355 127.324V173.966C138.355 174.932 139.139 175.716 140.105 175.716H172.961C173.927 175.716 174.711 174.932 174.711 173.966V127.324C174.711 126.358 173.927 125.574 172.961 125.574Z" fill="white"/>
<path d="M140.577 107.552L141.767 108.095C146.438 110.211 151.407 111.279 156.533 111.279C161.659 111.279 166.627 110.211 171.299 108.095C171.299 108.095 171.841 107.85 172.488 107.552C173.153 107.255 173.363 106.293 172.961 105.418L169.952 98.752C169.549 97.8773 168.692 97.4049 168.027 97.7023L166.837 98.2447C160.312 101.201 152.736 101.201 146.193 98.2447C146.193 98.2447 145.651 97.9997 145.003 97.7023C144.338 97.4049 143.481 97.8773 143.096 98.752L140.087 105.418C139.685 106.293 139.895 107.255 140.559 107.552H140.577Z" fill="white"/>
<path d="M126.876 149.38C126.876 143.344 104.149 126.426 104.149 124.554V106.954C105.461 106.796 106.406 106.324 106.406 105.764V99.2031C106.406 98.5208 104.954 97.9609 103.152 97.9609H93.7745C91.99 97.9609 90.5204 98.5208 90.5204 99.2031V105.764C90.5204 106.324 91.4826 106.779 92.7773 106.954V124.554C92.8123 126.426 70.0859 143.344 70.0859 149.38C70.0859 149.38 68.8087 209.948 76.1043 209.948H120.875C128.17 209.948 126.893 149.38 126.893 149.38H126.876Z" fill="#363537"/>
<path d="M111.777 153.969H85.202C81.308 153.969 78.1514 157.125 78.1514 161.019V187.07C78.1514 190.964 81.308 194.12 85.202 194.12H111.777C115.671 194.12 118.828 190.964 118.828 187.07V161.019C118.828 157.125 115.671 153.969 111.777 153.969Z" fill="white"/>
<path d="M108.278 143.393C101.123 146.245 94.9292 145.773 88.7009 143.376C87.7912 143.026 86.7589 143.428 86.3391 144.303C86.0766 144.88 85.7967 145.458 85.5343 146.035C85.1319 146.91 85.5168 147.942 86.409 148.275C94.177 151.196 102.785 151.196 110.553 148.275C111.462 147.942 111.847 146.91 111.427 146.035C111.165 145.458 110.885 144.88 110.623 144.286C110.22 143.411 109.17 143.026 108.278 143.393Z" fill="white"/>
</svg>
